<?xml version="1.0" encoding="UTF-8" standalone="no"?>
<!DOCTYPE svg PUBLIC "-//W3C//DTD SVG 1.1//EN" "http://www.w3.org/Graphics/SVG/1.1/DTD/svg11.dtd">
<svg width="100%" height="100%" viewBox="0 0 509 460" version="1.1" xmlns="http://www.w3.org/2000/svg" xmlns:xlink="http://www.w3.org/1999/xlink" xml:space="preserve" xmlns:serif="http://www.serif.com/" style="fill-rule:evenodd;clip-rule:evenodd;">
    <g transform="matrix(1,0,0,1,-24.417,21.0773)">
        <g transform="matrix(0.555206,0,0,0.651015,215.637,-8.06953)">
            <g id="Speech_Bubble_48_">
                <g id="g4">
                    <path id="path2" d="M74.546,481.398L38.268,481.398L63.92,455.746C77.751,441.914 86.389,423.924 88.711,404.409C29.479,365.538 0,309.227 0,250.193C0,141.281 100.1,30.602 256.868,30.602C422.946,30.602 512,132.448 512,240.651C512,349.567 422.005,451.345 256.868,451.345C227.939,451.345 197.753,447.483 170.803,440.398C145.291,466.565 110.723,481.398 74.546,481.398Z" style="fill-rule:nonzero;stroke:rgb(255,170,234);stroke-width:26.4px;"/>
                </g>
            </g>
        </g>
        <g transform="matrix(1,0,0,1,-22.6377,-18.6273)">
            <g id="G">
                <g transform="matrix(278.119,0,0,278.119,32.3143,451.641)">
                    <path d="M0.387,-0.314L0.387,-0.372L0.695,-0.372L0.695,-0L0.637,-0L0.637,-0.123C0.624,-0.102 0.61,-0.082 0.594,-0.065C0.577,-0.047 0.558,-0.032 0.537,-0.02C0.516,-0.007 0.491,0.002 0.463,0.009C0.435,0.016 0.403,0.019 0.368,0.019C0.323,0.019 0.281,0.011 0.242,-0.005C0.203,-0.021 0.17,-0.045 0.142,-0.077C0.114,-0.108 0.092,-0.148 0.077,-0.196C0.061,-0.244 0.053,-0.3 0.053,-0.364C0.053,-0.417 0.06,-0.466 0.073,-0.512C0.086,-0.557 0.107,-0.597 0.135,-0.631C0.162,-0.664 0.197,-0.691 0.239,-0.71C0.28,-0.729 0.329,-0.739 0.386,-0.739C0.424,-0.739 0.46,-0.734 0.493,-0.725C0.526,-0.716 0.555,-0.701 0.582,-0.683C0.608,-0.664 0.63,-0.64 0.648,-0.612C0.666,-0.583 0.679,-0.55 0.687,-0.511L0.617,-0.511C0.611,-0.538 0.601,-0.562 0.587,-0.583C0.572,-0.604 0.555,-0.622 0.535,-0.637C0.515,-0.651 0.493,-0.662 0.468,-0.67C0.443,-0.677 0.418,-0.681 0.391,-0.681C0.344,-0.681 0.303,-0.673 0.269,-0.656C0.235,-0.639 0.207,-0.616 0.185,-0.586C0.163,-0.555 0.147,-0.519 0.137,-0.477C0.126,-0.434 0.121,-0.388 0.121,-0.337C0.121,-0.297 0.127,-0.259 0.139,-0.223C0.15,-0.187 0.167,-0.155 0.19,-0.128C0.212,-0.101 0.239,-0.079 0.272,-0.063C0.304,-0.047 0.341,-0.039 0.382,-0.039C0.401,-0.039 0.421,-0.041 0.442,-0.046C0.463,-0.05 0.483,-0.057 0.502,-0.067C0.521,-0.077 0.539,-0.09 0.556,-0.106C0.573,-0.122 0.587,-0.142 0.599,-0.165C0.61,-0.188 0.618,-0.211 0.623,-0.236C0.627,-0.261 0.629,-0.287 0.63,-0.314L0.387,-0.314Z" style="fill-rule:nonzero;"/>
                </g>
            </g>
        </g>
    </g>
</svg>
